<svg width="1693" height="1023" viewBox="0 0 1693 1023" fill="none" xmlns="http://www.w3.org/2000/svg">
<path d="M384.67 332.73C373.777 332.73 364.89 329.577 358.01 323.27C351.13 316.677 347.403 308.077 346.83 297.47L346.4 292.31V175.35C346.4 161.303 343.963 150.697 339.09 143.53C334.217 136.363 327.05 132.78 317.59 132.78C306.697 132.78 297.523 137.797 290.07 147.83C282.903 157.577 278.603 170.047 277.17 185.24H235.89C238.183 173.487 243.2 163.023 250.94 153.85C258.967 144.677 268.857 137.51 280.61 132.35C292.65 126.903 305.407 124.18 318.88 124.18C337.227 124.18 352.133 128.91 363.6 138.37C375.353 147.543 381.23 161.017 381.23 178.79V290.16C381.23 296.18 382.663 301.053 385.53 304.78C388.683 308.22 393.127 309.94 398.86 309.94C404.593 309.94 409.61 307.933 413.91 303.92C418.497 299.62 421.507 293.743 422.94 286.29H430.25C427.957 301.483 422.653 313.093 414.34 321.12C406.027 328.86 396.137 332.73 384.67 332.73ZM287.92 333.16C272.727 333.16 260.113 328.573 250.08 319.4C240.333 309.94 235.46 297.757 235.46 282.85C235.46 267.657 240.763 255.903 251.37 247.59C261.977 238.99 278.747 232.683 301.68 228.67L347.26 220.07V228.24L308.13 236.41C296.09 239.277 286.917 243.863 280.61 250.17C274.303 256.19 271.15 264.217 271.15 274.25C271.15 284.57 274.447 292.883 281.04 299.19C287.92 305.497 296.52 308.65 306.84 308.65C316.013 308.65 324.47 306.213 332.21 301.34C339.95 296.18 345.683 289.73 349.41 281.99L353.28 283.71C346.687 300.05 337.513 312.377 325.76 320.69C314.293 329.003 301.68 333.16 287.92 333.16ZM562.787 332.3C550.747 332.3 538.707 331.153 526.667 328.86C514.627 326.567 504.881 323.843 497.427 320.69V62.26V43.77C497.427 35.17 494.991 29.58 490.117 27C485.244 24.1333 476.214 24.1333 463.027 27V18.83L532.257 0.33999V62.26V165.89C540.284 153.85 550.747 144.103 563.647 136.65C576.547 128.91 590.451 125.04 605.357 125.04C619.117 125.04 631.587 128.337 642.767 134.93C653.947 141.523 662.834 151.413 669.427 164.6C676.307 177.787 679.747 193.553 679.747 211.9C679.747 234.26 674.731 254.613 664.697 272.96C654.951 291.307 641.191 305.783 623.417 316.39C605.931 326.997 585.721 332.3 562.787 332.3ZM571.817 323.27C585.864 323.27 598.477 318.683 609.657 309.51C621.124 300.05 629.867 287.293 635.887 271.24C642.194 255.187 645.347 237.27 645.347 217.49C645.347 196.277 640.187 179.507 629.867 167.18C619.834 154.567 606.074 148.26 588.587 148.26C576.834 148.26 565.797 150.983 555.477 156.43C545.444 161.59 537.704 168.183 532.257 176.21V285.86C532.257 297.613 535.841 306.787 543.007 313.38C550.174 319.973 559.777 323.27 571.817 323.27ZM778.406 333.16C762.066 333.16 747.159 329.147 733.686 321.12C720.499 312.807 710.179 301.34 702.726 286.72C695.272 271.813 691.546 254.327 691.546 234.26C691.546 213.047 695.702 194.127 704.016 177.5C712.329 160.587 723.652 147.543 737.986 138.37C752.319 128.91 768.229 124.18 785.716 124.18C808.649 124.18 827.282 131.203 841.616 145.25C856.236 159.297 863.976 178.503 864.836 202.87L715.626 202.01V194.27L826.136 193.84C825.562 174.633 821.406 159.727 813.666 149.12C805.926 138.513 795.319 133.21 781.846 133.21C770.379 133.21 760.202 136.65 751.316 143.53C742.716 150.41 735.836 160.3 730.676 173.2C725.516 186.1 722.936 201.15 722.936 218.35C722.936 233.543 725.659 247.59 731.106 260.49C736.839 273.39 745.009 283.567 755.616 291.02C766.222 298.473 778.692 302.2 793.026 302.2C806.786 302.2 819.399 298.617 830.866 291.45C842.332 283.997 850.646 273.963 855.806 261.35H863.976C857.669 284.57 846.776 302.343 831.296 314.67C815.816 326.997 798.186 333.16 778.406 333.16ZM905.608 328H866.048V319.4H896.578V62.26V43.77C896.578 35.17 894.142 29.58 889.268 27C884.395 24.1333 875.365 24.1333 862.178 27V18.83L931.408 0.33999V62.26V319.4H962.368V328H922.378H905.608ZM1052.23 333.16C1035.89 333.16 1020.98 329.147 1007.51 321.12C994.322 312.807 984.002 301.34 976.548 286.72C969.095 271.813 965.368 254.327 965.368 234.26C965.368 213.047 969.525 194.127 977.838 177.5C986.152 160.587 997.475 147.543 1011.81 138.37C1026.14 128.91 1042.05 124.18 1059.54 124.18C1082.47 124.18 1101.1 131.203 1115.44 145.25C1130.06 159.297 1137.8 178.503 1138.66 202.87L989.448 202.01V194.27L1099.96 193.84C1099.38 174.633 1095.23 159.727 1087.49 149.12C1079.75 138.513 1069.14 133.21 1055.67 133.21C1044.2 133.21 1034.02 136.65 1025.14 143.53C1016.54 150.41 1009.66 160.3 1004.5 173.2C999.338 186.1 996.758 201.15 996.758 218.35C996.758 233.543 999.482 247.59 1004.93 260.49C1010.66 273.39 1018.83 283.567 1029.44 291.02C1040.04 298.473 1052.51 302.2 1066.85 302.2C1080.61 302.2 1093.22 298.617 1104.69 291.45C1116.15 283.997 1124.47 273.963 1129.63 261.35H1137.8C1131.49 284.57 1120.6 302.343 1105.12 314.67C1089.64 326.997 1072.01 333.16 1052.23 333.16ZM1262.85 134.5L1279.19 137.51H1212.54C1193.33 137.51 1179.29 142.813 1170.4 153.42C1161.8 163.74 1157.5 177.357 1157.5 194.27H1149.33V129.34H1305.42L1189.75 321.98L1174.27 319.4H1240.92C1262.71 319.4 1277.76 314.813 1286.07 305.64C1294.38 296.467 1298.54 282.277 1298.54 263.07H1306.71V328H1147.61L1262.85 134.5ZM1467.35 332.73C1456.45 332.73 1447.57 329.577 1440.69 323.27C1433.81 316.677 1430.08 308.077 1429.51 297.47L1429.08 292.31V175.35C1429.08 161.303 1426.64 150.697 1421.77 143.53C1416.89 136.363 1409.73 132.78 1400.27 132.78C1389.37 132.78 1380.2 137.797 1372.75 147.83C1365.58 157.577 1361.28 170.047 1359.85 185.24H1318.57C1320.86 173.487 1325.88 163.023 1333.62 153.85C1341.64 144.677 1351.53 137.51 1363.29 132.35C1375.33 126.903 1388.08 124.18 1401.56 124.18C1419.9 124.18 1434.81 128.91 1446.28 138.37C1458.03 147.543 1463.91 161.017 1463.91 178.79V290.16C1463.91 296.18 1465.34 301.053 1468.21 304.78C1471.36 308.22 1475.8 309.94 1481.54 309.94C1487.27 309.94 1492.29 307.933 1496.59 303.92C1501.17 299.62 1504.18 293.743 1505.62 286.29H1512.93C1510.63 301.483 1505.33 313.093 1497.02 321.12C1488.7 328.86 1478.81 332.73 1467.35 332.73ZM1370.6 333.16C1355.4 333.16 1342.79 328.573 1332.76 319.4C1323.01 309.94 1318.14 297.757 1318.14 282.85C1318.14 267.657 1323.44 255.903 1334.05 247.59C1344.65 238.99 1361.42 232.683 1384.36 228.67L1429.94 220.07V228.24L1390.81 236.41C1378.77 239.277 1369.59 243.863 1363.29 250.17C1356.98 256.19 1353.83 264.217 1353.83 274.25C1353.83 284.57 1357.12 292.883 1363.72 299.19C1370.6 305.497 1379.2 308.65 1389.52 308.65C1398.69 308.65 1407.15 306.213 1414.89 301.34C1422.63 296.18 1428.36 289.73 1432.09 281.99L1435.96 283.71C1429.36 300.05 1420.19 312.377 1408.44 320.69C1396.97 329.003 1384.36 333.16 1370.6 333.16ZM479.294 672H440.594V663.4H470.694V535.26C470.694 521.5 466.967 510.75 459.514 503.01C452.06 495.27 442.027 491.4 429.414 491.4C418.234 491.4 407.484 494.41 397.164 500.43C386.844 506.45 379.104 514.333 373.944 524.08L369.644 521.07C376.237 506.163 386.27 493.693 399.744 483.66C413.504 473.34 428.554 468.18 444.894 468.18C462.954 468.18 477.574 473.913 488.754 485.38C499.934 496.56 505.524 511.897 505.524 531.39V663.4H534.334V672H496.924H479.294ZM349.004 672H310.734V663.4H340.404V527.52V509.03C340.404 501.863 337.824 496.847 332.664 493.98C327.79 491.113 320.05 491.113 309.444 493.98V486.24L375.234 465.6V527.52V663.4H404.904V672H366.634H349.004ZM686.829 676.73C675.936 676.73 667.049 673.577 660.169 667.27C653.289 660.677 649.562 652.077 648.989 641.47L648.559 636.31V519.35C648.559 505.303 646.122 494.697 641.249 487.53C636.376 480.363 629.209 476.78 619.749 476.78C608.856 476.78 599.682 481.797 592.229 491.83C585.062 501.577 580.762 514.047 579.329 529.24H538.049C540.342 517.487 545.359 507.023 553.099 497.85C561.126 488.677 571.016 481.51 582.769 476.35C594.809 470.903 607.566 468.18 621.039 468.18C639.386 468.18 654.292 472.91 665.759 482.37C677.512 491.543 683.389 505.017 683.389 522.79V634.16C683.389 640.18 684.822 645.053 687.689 648.78C690.842 652.22 695.286 653.94 701.019 653.94C706.752 653.94 711.769 651.933 716.069 647.92C720.656 643.62 723.666 637.743 725.099 630.29H732.409C730.116 645.483 724.812 657.093 716.499 665.12C708.186 672.86 698.296 676.73 686.829 676.73ZM590.079 677.16C574.886 677.16 562.272 672.573 552.239 663.4C542.492 653.94 537.619 641.757 537.619 626.85C537.619 611.657 542.922 599.903 553.529 591.59C564.136 582.99 580.906 576.683 603.839 572.67L649.419 564.07V572.24L610.289 580.41C598.249 583.277 589.076 587.863 582.769 594.17C576.462 600.19 573.309 608.217 573.309 618.25C573.309 628.57 576.606 636.883 583.199 643.19C590.079 649.497 598.679 652.65 608.999 652.65C618.172 652.65 626.629 650.213 634.369 645.34C642.109 640.18 647.842 633.73 651.569 625.99L655.439 627.71C648.846 644.05 639.672 656.377 627.919 664.69C616.452 673.003 603.839 677.16 590.079 677.16ZM547.939 421.74C548.226 407.693 552.096 395.797 559.549 386.05C567.002 376.017 577.179 371 590.079 371C595.812 371 601.259 372.003 606.419 374.01C611.579 375.73 618.029 378.597 625.769 382.61C632.362 386.05 637.809 388.63 642.109 390.35C646.696 391.783 651.282 392.5 655.869 392.5C662.176 392.5 667.479 390.637 671.779 386.91C676.079 383.183 678.516 377.45 679.089 369.71H685.969C685.682 384.33 681.812 396.513 674.359 406.26C667.192 415.72 657.302 420.45 644.689 420.45C639.242 420.45 633.796 419.59 628.349 417.87C623.189 415.863 617.026 412.997 609.859 409.27C602.979 405.83 597.389 403.25 593.089 401.53C589.076 399.81 584.776 398.95 580.189 398.95C573.022 398.95 567.146 400.957 562.559 404.97C557.972 408.983 555.392 414.573 554.819 421.74H547.939ZM821.281 677.16C803.508 677.16 787.025 672.717 771.831 663.83C756.925 654.943 745.028 642.617 736.141 626.85C727.255 610.797 722.811 592.593 722.811 572.24C722.811 551.887 727.255 533.827 736.141 518.06C745.028 502.293 756.925 490.11 771.831 481.51C787.025 472.623 803.508 468.18 821.281 468.18C839.055 468.18 855.395 472.623 870.301 481.51C885.495 490.11 897.535 502.293 906.421 518.06C915.308 533.827 919.751 551.887 919.751 572.24C919.751 592.593 915.308 610.797 906.421 626.85C897.535 642.617 885.495 654.943 870.301 663.83C855.395 672.717 839.055 677.16 821.281 677.16ZM821.281 668.56C833.035 668.56 843.498 664.547 852.671 656.52C862.131 648.207 869.441 636.883 874.601 622.55C879.761 607.93 882.341 591.16 882.341 572.24C882.341 553.32 879.761 536.693 874.601 522.36C869.441 508.027 862.131 496.847 852.671 488.82C843.498 480.793 833.035 476.78 821.281 476.78C809.528 476.78 798.921 480.793 789.461 488.82C780.288 496.847 773.121 508.027 767.961 522.36C762.801 536.693 760.221 553.32 760.221 572.24C760.221 591.16 762.801 607.93 767.961 622.55C773.121 636.883 780.288 648.207 789.461 656.52C798.921 664.547 809.528 668.56 821.281 668.56ZM1040.37 672H995.223V663.4H1030.05V483.23H992.643V473.34H1030.05V447.97C1030.05 425.897 1034.35 406.69 1042.95 390.35C1051.84 374.01 1064.17 361.54 1079.93 352.94C1095.7 344.053 1114.05 339.61 1134.97 339.61C1142.43 339.61 1148.73 340.04 1153.89 340.9V379.17C1144.72 371.43 1136.12 365.697 1128.09 361.97C1120.07 357.957 1112.18 355.95 1104.44 355.95C1092.12 355.95 1082.37 360.107 1075.2 368.42C1068.32 376.447 1064.88 388.917 1064.88 405.83V473.34H1125.08L1122.5 483.23H1064.88V663.4H1101.86V672H1054.13H1040.37ZM1212.7 677.16C1194.93 677.16 1178.44 672.717 1163.25 663.83C1148.34 654.943 1136.45 642.617 1127.56 626.85C1118.67 610.797 1114.23 592.593 1114.23 572.24C1114.23 551.887 1118.67 533.827 1127.56 518.06C1136.45 502.293 1148.34 490.11 1163.25 481.51C1178.44 472.623 1194.93 468.18 1212.7 468.18C1230.47 468.18 1246.81 472.623 1261.72 481.51C1276.91 490.11 1288.95 502.293 1297.84 518.06C1306.73 533.827 1311.17 551.887 1311.17 572.24C1311.17 592.593 1306.73 610.797 1297.84 626.85C1288.95 642.617 1276.91 654.943 1261.72 663.83C1246.81 672.717 1230.47 677.16 1212.7 677.16ZM1212.7 668.56C1224.45 668.56 1234.92 664.547 1244.09 656.52C1253.55 648.207 1260.86 636.883 1266.02 622.55C1271.18 607.93 1273.76 591.16 1273.76 572.24C1273.76 553.32 1271.18 536.693 1266.02 522.36C1260.86 508.027 1253.55 496.847 1244.09 488.82C1234.92 480.793 1224.45 476.78 1212.7 476.78C1200.95 476.78 1190.34 480.793 1180.88 488.82C1171.71 496.847 1164.54 508.027 1159.38 522.36C1154.22 536.693 1151.64 553.32 1151.64 572.24C1151.64 591.16 1154.22 607.93 1159.38 622.55C1164.54 636.883 1171.71 648.207 1180.88 656.52C1190.34 664.547 1200.95 668.56 1212.7 668.56ZM1356.5 672H1317.8V663.4H1347.9V527.52V509.03C1347.9 501.577 1345.32 496.56 1340.16 493.98C1335.28 491.113 1327.54 491.113 1316.94 493.98V486.24L1382.73 465.6V527.52V663.4H1412.4V672H1374.13H1356.5ZM1364.24 423.46C1356.5 423.46 1349.9 420.737 1344.46 415.29C1339.01 409.843 1336.29 403.107 1336.29 395.08C1336.29 387.627 1339.01 381.177 1344.46 375.73C1349.9 370.283 1356.5 367.56 1364.24 367.56C1371.98 367.56 1378.57 370.283 1384.02 375.73C1389.46 381.177 1392.19 387.627 1392.19 395.08C1392.19 403.107 1389.46 409.843 1384.02 415.29C1378.57 420.737 1371.98 423.46 1364.24 423.46ZM40.1342 1016H1.43424V1007.4H31.5342V871.52V853.03C31.5342 845.577 28.9542 840.56 23.7942 837.98C18.9209 835.113 11.1809 835.113 0.574244 837.98V830.24L66.3642 809.6V871.52V1007.4H96.0342V1016H57.7642H40.1342ZM47.8742 767.46C40.1342 767.46 33.5409 764.737 28.0942 759.29C22.6476 753.843 19.9242 747.107 19.9242 739.08C19.9242 731.627 22.6476 725.177 28.0942 719.73C33.5409 714.283 40.1342 711.56 47.8742 711.56C55.6142 711.56 62.2076 714.283 67.6542 719.73C73.1009 725.177 75.8242 731.627 75.8242 739.08C75.8242 747.107 73.1009 753.843 67.6542 759.29C62.2076 764.737 55.6142 767.46 47.8742 767.46ZM263.244 1016H224.544V1007.4H254.644V879.26C254.644 865.5 250.917 854.75 243.464 847.01C236.01 839.27 225.977 835.4 213.364 835.4C202.184 835.4 191.434 838.41 181.114 844.43C170.794 850.45 163.054 858.333 157.894 868.08L153.594 865.07C160.187 850.163 170.22 837.693 183.694 827.66C197.454 817.34 212.504 812.18 228.844 812.18C246.904 812.18 261.524 817.913 272.704 829.38C283.884 840.56 289.474 855.897 289.474 875.39V1007.4H318.284V1016H280.874H263.244ZM132.954 1016H94.6838V1007.4H124.354V871.52V853.03C124.354 845.863 121.774 840.847 116.614 837.98C111.74 835.113 104 835.113 93.3938 837.98V830.24L159.184 809.6V871.52V1007.4H188.854V1016H150.584H132.954ZM321.002 825.94H296.062V817.34H328.312H349.382H389.372V825.94H358.412L419.472 974.72L404.852 999.66L477.092 825.94H446.562V817.34H486.122H480.962H513.212V825.94H488.272L407.432 1019.44H401.412L321.002 825.94ZM586.493 1021.16C570.153 1021.16 555.246 1017.15 541.773 1009.12C528.586 1000.81 518.266 989.34 510.813 974.72C503.36 959.813 499.633 942.327 499.633 922.26C499.633 901.047 503.79 882.127 512.103 865.5C520.416 848.587 531.74 835.543 546.073 826.37C560.406 816.91 576.316 812.18 593.803 812.18C616.736 812.18 635.37 819.203 649.703 833.25C664.323 847.297 672.063 866.503 672.923 890.87L523.713 890.01V882.27L634.223 881.84C633.65 862.633 629.493 847.727 621.753 837.12C614.013 826.513 603.406 821.21 589.933 821.21C578.466 821.21 568.29 824.65 559.403 831.53C550.803 838.41 543.923 848.3 538.763 861.2C533.603 874.1 531.023 889.15 531.023 906.35C531.023 921.543 533.746 935.59 539.193 948.49C544.926 961.39 553.096 971.567 563.703 979.02C574.31 986.473 586.78 990.2 601.113 990.2C614.873 990.2 627.486 986.617 638.953 979.45C650.42 971.997 658.733 961.963 663.893 949.35H672.063C665.756 972.57 654.863 990.343 639.383 1002.67C623.903 1015 606.273 1021.16 586.493 1021.16ZM846.566 1016H807.866V1007.4H837.966V879.26C837.966 865.5 834.239 854.75 826.786 847.01C819.332 839.27 809.299 835.4 796.686 835.4C785.506 835.4 774.756 838.41 764.436 844.43C754.116 850.45 746.376 858.333 741.216 868.08L736.916 865.07C743.509 850.163 753.542 837.693 767.016 827.66C780.776 817.34 795.826 812.18 812.166 812.18C830.226 812.18 844.846 817.913 856.026 829.38C867.206 840.56 872.796 855.897 872.796 875.39V1007.4H901.606V1016H864.196H846.566ZM716.276 1016H678.006V1007.4H707.676V871.52V853.03C707.676 845.863 705.096 840.847 699.936 837.98C695.062 835.113 687.322 835.113 676.716 837.98V830.24L742.506 809.6V871.52V1007.4H772.176V1016H733.906H716.276ZM973.301 1021.16C959.828 1021.16 949.078 1017.43 941.051 1009.98C933.025 1002.53 929.011 991.777 929.011 977.73V765.74L963.411 750.69V971.28C963.411 979.02 965.561 985.04 969.861 989.34C974.161 993.353 979.895 995.36 987.061 995.36C994.515 995.36 1001.39 992.923 1007.7 988.05C1014.01 983.177 1018.45 976.727 1021.03 968.7H1028.77C1024.18 986.473 1017.02 999.66 1007.27 1008.26C997.811 1016.86 986.488 1021.16 973.301 1021.16ZM887.301 817.34H1024.47L1021.46 827.23H887.301V817.34ZM1179.25 1020.73C1168.36 1020.73 1159.47 1017.58 1152.59 1011.27C1145.71 1004.68 1141.99 996.077 1141.41 985.47L1140.98 980.31V863.35C1140.98 849.303 1138.55 838.697 1133.67 831.53C1128.8 824.363 1121.63 820.78 1112.17 820.78C1101.28 820.78 1092.11 825.797 1084.65 835.83C1077.49 845.577 1073.19 858.047 1071.75 873.24H1030.47C1032.77 861.487 1037.78 851.023 1045.52 841.85C1053.55 832.677 1063.44 825.51 1075.19 820.35C1087.23 814.903 1099.99 812.18 1113.46 812.18C1131.81 812.18 1146.72 816.91 1158.18 826.37C1169.94 835.543 1175.81 849.017 1175.81 866.79V978.16C1175.81 984.18 1177.25 989.053 1180.11 992.78C1183.27 996.22 1187.71 997.94 1193.44 997.94C1199.18 997.94 1204.19 995.933 1208.49 991.92C1213.08 987.62 1216.09 981.743 1217.52 974.29H1224.83C1222.54 989.483 1217.24 1001.09 1208.92 1009.12C1200.61 1016.86 1190.72 1020.73 1179.25 1020.73ZM1082.5 1021.16C1067.31 1021.16 1054.7 1016.57 1044.66 1007.4C1034.92 997.94 1030.04 985.757 1030.04 970.85C1030.04 955.657 1035.35 943.903 1045.95 935.59C1056.56 926.99 1073.33 920.683 1096.26 916.67L1141.84 908.07V916.24L1102.71 924.41C1090.67 927.277 1081.5 931.863 1075.19 938.17C1068.89 944.19 1065.73 952.217 1065.73 962.25C1065.73 972.57 1069.03 980.883 1075.62 987.19C1082.5 993.497 1091.1 996.65 1101.42 996.65C1110.6 996.65 1119.05 994.213 1126.79 989.34C1134.53 984.18 1140.27 977.73 1143.99 969.99L1147.86 971.71C1141.27 988.05 1132.1 1000.38 1120.34 1008.69C1108.88 1017 1096.26 1021.16 1082.5 1021.16ZM1296.51 1021.16C1281.31 1021.16 1267.41 1017.15 1254.8 1009.12C1242.18 1000.81 1232.15 989.34 1224.7 974.72C1217.53 960.1 1213.95 943.187 1213.95 923.98C1213.95 902.193 1218.53 882.843 1227.71 865.93C1236.88 848.73 1249.35 835.543 1265.12 826.37C1281.17 816.91 1299.23 812.18 1319.3 812.18C1329.33 812.18 1338.93 813.47 1348.11 816.05C1357.28 818.343 1364.88 821.497 1370.9 825.51L1367.46 871.95C1367.46 855.323 1362.73 842.71 1353.27 834.11C1344.09 825.223 1332.77 820.78 1319.3 820.78C1305.54 820.78 1293.21 824.793 1282.32 832.82C1271.42 840.847 1262.97 851.74 1256.95 865.5C1250.93 879.26 1247.92 894.597 1247.92 911.51C1247.92 927.563 1250.78 941.897 1256.52 954.51C1262.54 966.837 1270.56 976.44 1280.6 983.32C1290.92 990.2 1302.24 993.64 1314.57 993.64C1327.18 993.64 1338.65 990.2 1348.97 983.32C1359.29 976.153 1366.6 967.123 1370.9 956.23L1372.62 965.69C1365.45 982.03 1355.13 995.36 1341.66 1005.68C1328.18 1016 1313.13 1021.16 1296.51 1021.16ZM1368.75 970.42L1367.46 966.55V750.26V731.77C1367.46 723.17 1364.88 717.58 1359.72 715C1354.84 712.133 1345.81 712.133 1332.63 715V706.83L1402.29 688.34V750.26V1001.38H1368.75V970.42ZM1368.75 964.4H1402.29V975.58C1402.29 983.893 1404.58 989.77 1409.17 993.21C1413.75 996.65 1422.07 996.793 1434.11 993.64V1001.38L1368.75 1022.02V964.4ZM1587.03 1020.73C1576.14 1020.73 1567.25 1017.58 1560.37 1011.27C1553.49 1004.68 1549.77 996.077 1549.19 985.47L1548.76 980.31V863.35C1548.76 849.303 1546.33 838.697 1541.45 831.53C1536.58 824.363 1529.41 820.78 1519.95 820.78C1509.06 820.78 1499.89 825.797 1492.43 835.83C1485.27 845.577 1480.97 858.047 1479.53 873.24H1438.25C1440.55 861.487 1445.56 851.023 1453.3 841.85C1461.33 832.677 1471.22 825.51 1482.97 820.35C1495.01 814.903 1507.77 812.18 1521.24 812.18C1539.59 812.18 1554.5 816.91 1565.96 826.37C1577.72 835.543 1583.59 849.017 1583.59 866.79V978.16C1583.59 984.18 1585.03 989.053 1587.89 992.78C1591.05 996.22 1595.49 997.94 1601.22 997.94C1606.96 997.94 1611.97 995.933 1616.27 991.92C1620.86 987.62 1623.87 981.743 1625.3 974.29H1632.61C1630.32 989.483 1625.02 1001.09 1616.7 1009.12C1608.39 1016.86 1598.5 1020.73 1587.03 1020.73ZM1490.28 1021.16C1475.09 1021.16 1462.48 1016.57 1452.44 1007.4C1442.7 997.94 1437.82 985.757 1437.82 970.85C1437.82 955.657 1443.13 943.903 1453.73 935.59C1464.34 926.99 1481.11 920.683 1504.04 916.67L1549.62 908.07V916.24L1510.49 924.41C1498.45 927.277 1489.28 931.863 1482.97 938.17C1476.67 944.19 1473.51 952.217 1473.51 962.25C1473.51 972.57 1476.81 980.883 1483.4 987.19C1490.28 993.497 1498.88 996.65 1509.2 996.65C1518.38 996.65 1526.83 994.213 1534.57 989.34C1542.31 984.18 1548.05 977.73 1551.77 969.99L1555.64 971.71C1549.05 988.05 1539.88 1000.38 1528.12 1008.69C1516.66 1017 1504.04 1021.16 1490.28 1021.16ZM1661.2 1019.44C1655.47 1019.44 1650.17 1018.15 1645.29 1015.57C1640.42 1012.7 1636.55 1008.83 1633.68 1003.96C1631.1 999.087 1629.81 993.783 1629.81 988.05C1629.81 982.317 1631.1 977.157 1633.68 972.57C1636.55 967.697 1640.42 963.97 1645.29 961.39C1650.17 958.523 1655.47 957.09 1661.2 957.09C1666.94 957.09 1672.1 958.523 1676.68 961.39C1681.56 963.97 1685.28 967.697 1687.86 972.57C1690.73 977.157 1692.16 982.317 1692.16 988.05C1692.16 993.783 1690.73 999.087 1687.86 1003.96C1685.28 1008.83 1681.56 1012.7 1676.68 1015.57C1672.1 1018.15 1666.94 1019.44 1661.2 1019.44Z" fill="black"/>
</svg>
